<?xml version="1.0" standalone="no"?><!DOCTYPE svg PUBLIC "-//W3C//DTD SVG 1.1//EN" "http://www.w3.org/Graphics/SVG/1.1/DTD/svg11.dtd"><svg t="1591863250378" class="icon" viewBox="0 0 1024 1024" version="1.1" xmlns="http://www.w3.org/2000/svg" p-id="1405" xmlns:xlink="http://www.w3.org/1999/xlink" width="200" height="200"><defs><style type="text/css"></style></defs><path d="M511.2 809.3c-24 0-48.2-3.2-72-9.5-71.4-19.1-131-64.9-168-128.9C195 538.8 240.4 369.3 372.5 293c64-37 138.5-46.8 209.9-27.6 71.4 19.1 131 64.9 168 128.9 36.9 64 46.7 138.5 27.6 209.9s-64.9 131-128.9 168c-42.6 24.5-89.9 37.1-137.9 37.1z m-0.8-494.5c-37.7 0-75 9.9-108.5 29.3-104 60-139.7 193.4-79.7 297.4 29.1 50.4 76 86.4 132.2 101.4 56.2 15.1 114.8 7.3 165.2-21.7C670 692.1 706 645.2 721 589c15.1-56.2 7.3-114.8-21.7-165.2-29.1-50.4-76-86.4-132.2-101.4-18.7-5.2-37.8-7.6-56.7-7.6z" fill="#f4ea2a" p-id="1406"></path><path d="M201.8 887.5c-62.3 0-100.4-66-123.2-105.5C49.5 731.6-4.7 637.6 93 581.1c79.6-46 181.9-18.6 227.9 61 46 79.7 18.6 181.9-61.1 227.8-21.3 12.5-40.6 17.6-58 17.6z m-25.5-269.8c-18.3 0-36.8 4.6-53.8 14.4-33 19-39.3 40 7.2 120.4 46.4 80.4 67.7 85.5 100.7 66.4 51.5-29.7 69.2-95.8 39.5-147.4-20-34.4-56.3-53.8-93.6-53.8zM844.1 507.1c-57.7 0-113.9-29.9-144.7-83.4-22.3-38.6-28.2-83.5-16.7-126.6 11.5-43 39.1-79 77.7-101.3 50.6-29.2 89.2-15.4 112.7 1.2 25.9 18.4 46.1 48 68.5 86.7s37.9 71 40.9 102.7c2.7 28.7-4.7 69-55.3 98.2-26.2 15.3-54.9 22.5-83.1 22.5z m-26.2-269.5c-7.6 0-16.6 2.7-28.1 9.3-25 14.4-42.8 37.7-50.3 65.5-7.5 27.8-3.6 56.9 10.8 81.9 29.7 51.5 95.8 69.2 147.4 39.5 23.6-13.6 27.5-26.5 26.1-41.6-2.1-22.3-17.2-51-33.2-78.8-16-27.7-33.3-55.2-51.6-68.2-6.4-4.6-13-7.6-21.1-7.6z" fill="#f4ea2a" p-id="1407"></path></svg>